<mxfile host="65bd71144e">
    <diagram id="ApEHFeWeOXA67WmZC-K0" name="Page-1">
        <mxGraphModel dx="1431" dy="804" grid="1" gridSize="10" guides="1" tooltips="1" connect="1" arrows="1" fold="1" page="1" pageScale="1" pageWidth="1100" pageHeight="850" math="0" shadow="0">
            <root>
                <mxCell id="0"/>
                <mxCell id="1" parent="0"/>
                <mxCell id="4" style="html=1;entryX=0.5;entryY=1;entryDx=0;entryDy=0;endArrow=none;endFill=0;fontSize=15;" parent="1" source="2" target="3" edge="1">
                    <mxGeometry relative="1" as="geometry"/>
                </mxCell>
                <mxCell id="13" style="edgeStyle=none;shape=connector;rounded=1;html=1;entryX=1;entryY=0.5;entryDx=0;entryDy=0;labelBackgroundColor=default;strokeColor=default;fontFamily=Helvetica;fontSize=15;fontColor=default;endArrow=none;endFill=0;" parent="1" source="2" target="9" edge="1">
                    <mxGeometry relative="1" as="geometry"/>
                </mxCell>
                <mxCell id="14" style="edgeStyle=none;shape=connector;rounded=1;html=1;entryX=0.644;entryY=0;entryDx=0;entryDy=0;entryPerimeter=0;labelBackgroundColor=default;strokeColor=default;fontFamily=Helvetica;fontSize=15;fontColor=default;endArrow=none;endFill=0;" parent="1" source="2" target="11" edge="1">
                    <mxGeometry relative="1" as="geometry"/>
                </mxCell>
                <mxCell id="15" style="edgeStyle=none;shape=connector;rounded=1;html=1;exitX=0;exitY=0.75;exitDx=0;exitDy=0;entryX=0.778;entryY=0.04;entryDx=0;entryDy=0;entryPerimeter=0;labelBackgroundColor=default;strokeColor=default;fontFamily=Helvetica;fontSize=15;fontColor=default;endArrow=none;endFill=0;" parent="1" source="2" target="10" edge="1">
                    <mxGeometry relative="1" as="geometry"/>
                </mxCell>
                <mxCell id="19" style="edgeStyle=none;shape=connector;rounded=1;html=1;labelBackgroundColor=default;strokeColor=default;fontFamily=Helvetica;fontSize=15;fontColor=default;endArrow=none;endFill=0;" parent="1" source="2" target="12" edge="1">
                    <mxGeometry relative="1" as="geometry"/>
                </mxCell>
                <mxCell id="2" value="Student" style="rounded=0;whiteSpace=wrap;html=1;fontSize=15;" parent="1" vertex="1">
                    <mxGeometry x="490" y="460" width="120" height="60" as="geometry"/>
                </mxCell>
                <mxCell id="3" value="&lt;u&gt;Student Number&lt;/u&gt;" style="ellipse;whiteSpace=wrap;html=1;fontSize=15;" parent="1" vertex="1">
                    <mxGeometry x="455" y="370" width="90" height="50" as="geometry"/>
                </mxCell>
                <mxCell id="9" value="First name" style="ellipse;whiteSpace=wrap;html=1;fontSize=15;" parent="1" vertex="1">
                    <mxGeometry x="340" y="370" width="90" height="50" as="geometry"/>
                </mxCell>
                <mxCell id="10" value="Last name" style="ellipse;whiteSpace=wrap;html=1;fontSize=15;" parent="1" vertex="1">
                    <mxGeometry x="330" y="510" width="90" height="50" as="geometry"/>
                </mxCell>
                <mxCell id="11" value="Birthday" style="ellipse;whiteSpace=wrap;html=1;fontSize=15;" parent="1" vertex="1">
                    <mxGeometry x="365" y="590" width="90" height="50" as="geometry"/>
                </mxCell>
                <mxCell id="12" value="Grade" style="ellipse;whiteSpace=wrap;html=1;fontSize=15;" parent="1" vertex="1">
                    <mxGeometry x="610" y="400" width="90" height="50" as="geometry"/>
                </mxCell>
                <mxCell id="20" style="html=1;entryX=0.5;entryY=1;entryDx=0;entryDy=0;endArrow=none;endFill=0;fontSize=15;" parent="1" source="25" target="26" edge="1">
                    <mxGeometry relative="1" as="geometry"/>
                </mxCell>
                <mxCell id="21" style="edgeStyle=none;shape=connector;rounded=1;html=1;entryX=1;entryY=0.5;entryDx=0;entryDy=0;labelBackgroundColor=default;strokeColor=default;fontFamily=Helvetica;fontSize=15;fontColor=default;endArrow=none;endFill=0;" parent="1" source="25" target="27" edge="1">
                    <mxGeometry relative="1" as="geometry"/>
                </mxCell>
                <mxCell id="22" style="edgeStyle=none;shape=connector;rounded=1;html=1;entryX=0.644;entryY=0;entryDx=0;entryDy=0;entryPerimeter=0;labelBackgroundColor=default;strokeColor=default;fontFamily=Helvetica;fontSize=15;fontColor=default;endArrow=none;endFill=0;" parent="1" source="25" edge="1">
                    <mxGeometry relative="1" as="geometry">
                        <mxPoint x="1052.9599999999996" y="600" as="targetPoint"/>
                    </mxGeometry>
                </mxCell>
                <mxCell id="23" style="edgeStyle=none;shape=connector;rounded=1;html=1;exitX=0;exitY=1;exitDx=0;exitDy=0;entryX=0.778;entryY=0.04;entryDx=0;entryDy=0;entryPerimeter=0;labelBackgroundColor=default;strokeColor=default;fontFamily=Helvetica;fontSize=15;fontColor=default;endArrow=none;endFill=0;" parent="1" source="25" target="28" edge="1">
                    <mxGeometry relative="1" as="geometry"/>
                </mxCell>
                <mxCell id="24" style="edgeStyle=none;shape=connector;rounded=1;html=1;labelBackgroundColor=default;strokeColor=default;fontFamily=Helvetica;fontSize=15;fontColor=default;endArrow=none;endFill=0;exitX=0.75;exitY=0;exitDx=0;exitDy=0;" parent="1" source="25" target="30" edge="1">
                    <mxGeometry relative="1" as="geometry"/>
                </mxCell>
                <mxCell id="116" style="edgeStyle=none;html=1;" edge="1" parent="1" source="25" target="32">
                    <mxGeometry relative="1" as="geometry"/>
                </mxCell>
                <mxCell id="25" value="Teacher" style="rounded=0;whiteSpace=wrap;html=1;fontSize=15;" parent="1" vertex="1">
                    <mxGeometry x="890" y="470" width="120" height="60" as="geometry"/>
                </mxCell>
                <mxCell id="26" value="&lt;u&gt;Faculty ID&lt;/u&gt;" style="ellipse;whiteSpace=wrap;html=1;fontSize=15;" parent="1" vertex="1">
                    <mxGeometry x="850" y="350" width="90" height="50" as="geometry"/>
                </mxCell>
                <mxCell id="27" value="First name" style="ellipse;whiteSpace=wrap;html=1;fontSize=15;" parent="1" vertex="1">
                    <mxGeometry x="750" y="400" width="90" height="50" as="geometry"/>
                </mxCell>
                <mxCell id="28" value="Last name" style="ellipse;whiteSpace=wrap;html=1;fontSize=15;" parent="1" vertex="1">
                    <mxGeometry x="790" y="600" width="90" height="50" as="geometry"/>
                </mxCell>
                <mxCell id="30" value="Title" style="ellipse;whiteSpace=wrap;html=1;fontSize=15;" parent="1" vertex="1">
                    <mxGeometry x="995" y="350" width="90" height="50" as="geometry"/>
                </mxCell>
                <mxCell id="32" value="Grade Coordinator" style="whiteSpace=wrap;html=1;aspect=fixed;fontFamily=Helvetica;fontSize=15;fontColor=default;" parent="1" vertex="1">
                    <mxGeometry x="910" y="650" width="80" height="80" as="geometry"/>
                </mxCell>
                <mxCell id="138" style="edgeStyle=none;html=1;entryX=0;entryY=0.5;entryDx=0;entryDy=0;fontSize=16;endArrow=classic;endFill=1;" edge="1" parent="1" source="35" target="136">
                    <mxGeometry relative="1" as="geometry"/>
                </mxCell>
                <mxCell id="35" value="Junior High&lt;br style=&quot;font-size: 15px;&quot;&gt;Student&lt;br style=&quot;font-size: 15px;&quot;&gt;(grade 7 to 9)" style="whiteSpace=wrap;html=1;aspect=fixed;fontFamily=Helvetica;fontSize=15;fontColor=default;" parent="1" vertex="1">
                    <mxGeometry x="400" y="670" width="100" height="100" as="geometry"/>
                </mxCell>
                <mxCell id="139" style="edgeStyle=none;html=1;entryX=1;entryY=1;entryDx=0;entryDy=0;fontSize=16;endArrow=classic;endFill=1;" edge="1" parent="1" source="37" target="136">
                    <mxGeometry relative="1" as="geometry"/>
                </mxCell>
                <mxCell id="37" value="Senior High&lt;br style=&quot;font-size: 15px;&quot;&gt;Student&lt;br style=&quot;font-size: 15px;&quot;&gt;(grade 10 to 12)" style="whiteSpace=wrap;html=1;aspect=fixed;fontFamily=Helvetica;fontSize=15;fontColor=default;" parent="1" vertex="1">
                    <mxGeometry x="620" y="660" width="100" height="100" as="geometry"/>
                </mxCell>
                <mxCell id="41" value="" style="edgeStyle=none;shape=connector;rounded=1;html=1;labelBackgroundColor=default;strokeColor=default;fontFamily=Helvetica;fontSize=15;fontColor=default;endArrow=none;endFill=0;" parent="1" source="38" target="35" edge="1">
                    <mxGeometry relative="1" as="geometry"/>
                </mxCell>
                <mxCell id="38" value="Home Room" style="ellipse;whiteSpace=wrap;html=1;fontFamily=Helvetica;fontSize=15;fontColor=default;" parent="1" vertex="1">
                    <mxGeometry x="300" y="780" width="100" height="60" as="geometry"/>
                </mxCell>
                <mxCell id="40" style="edgeStyle=none;shape=connector;rounded=1;html=1;entryX=0.5;entryY=1;entryDx=0;entryDy=0;labelBackgroundColor=default;strokeColor=default;fontFamily=Helvetica;fontSize=15;fontColor=default;endArrow=none;endFill=0;" parent="1" source="39" target="37" edge="1">
                    <mxGeometry relative="1" as="geometry"/>
                </mxCell>
                <mxCell id="39" value="Academic Track" style="ellipse;whiteSpace=wrap;html=1;fontFamily=Helvetica;fontSize=15;fontColor=default;" parent="1" vertex="1">
                    <mxGeometry x="660" y="780" width="100" height="60" as="geometry"/>
                </mxCell>
                <mxCell id="49" style="html=1;entryX=0.5;entryY=1;entryDx=0;entryDy=0;endArrow=none;endFill=0;fontSize=15;" parent="1" edge="1">
                    <mxGeometry relative="1" as="geometry">
                        <mxPoint x="530" y="150" as="sourcePoint"/>
                        <mxPoint x="490" y="90" as="targetPoint"/>
                    </mxGeometry>
                </mxCell>
                <mxCell id="50" style="edgeStyle=none;shape=connector;rounded=1;html=1;entryX=1;entryY=0.5;entryDx=0;entryDy=0;labelBackgroundColor=default;strokeColor=default;fontFamily=Helvetica;fontSize=15;fontColor=default;endArrow=none;endFill=0;" parent="1" edge="1">
                    <mxGeometry relative="1" as="geometry">
                        <mxPoint x="499.2307692307693" y="150" as="sourcePoint"/>
                        <mxPoint x="439.9999999999998" y="115" as="targetPoint"/>
                    </mxGeometry>
                </mxCell>
                <mxCell id="51" style="edgeStyle=none;shape=connector;rounded=1;html=1;exitX=0;exitY=1;exitDx=0;exitDy=0;entryX=0.778;entryY=0.04;entryDx=0;entryDy=0;entryPerimeter=0;labelBackgroundColor=default;strokeColor=default;fontFamily=Helvetica;fontSize=15;fontColor=default;endArrow=none;endFill=0;" parent="1" edge="1">
                    <mxGeometry relative="1" as="geometry">
                        <mxPoint x="490" y="210" as="sourcePoint"/>
                        <mxPoint x="400.01999999999975" y="172" as="targetPoint"/>
                    </mxGeometry>
                </mxCell>
                <mxCell id="52" style="edgeStyle=none;shape=connector;rounded=1;html=1;labelBackgroundColor=default;strokeColor=default;fontFamily=Helvetica;fontSize=15;fontColor=default;endArrow=none;endFill=0;" parent="1" target="57" edge="1">
                    <mxGeometry relative="1" as="geometry">
                        <mxPoint x="576.4705882352941" y="150" as="sourcePoint"/>
                    </mxGeometry>
                </mxCell>
                <mxCell id="57" value="Address" style="ellipse;whiteSpace=wrap;html=1;fontSize=15;" parent="1" vertex="1">
                    <mxGeometry x="580" y="70" width="90" height="50" as="geometry"/>
                </mxCell>
                <mxCell id="59" style="edgeStyle=none;shape=connector;rounded=1;html=1;entryX=1;entryY=0.5;entryDx=0;entryDy=0;labelBackgroundColor=default;strokeColor=default;fontFamily=Helvetica;fontSize=15;fontColor=default;endArrow=none;endFill=0;" parent="1" source="58" edge="1">
                    <mxGeometry relative="1" as="geometry">
                        <mxPoint x="610" y="180" as="targetPoint"/>
                    </mxGeometry>
                </mxCell>
                <mxCell id="58" value="Email" style="ellipse;whiteSpace=wrap;html=1;fontFamily=Helvetica;fontSize=15;fontColor=default;" parent="1" vertex="1">
                    <mxGeometry x="680" y="140" width="80" height="60" as="geometry"/>
                </mxCell>
                <mxCell id="61" value="" style="edgeStyle=none;shape=link;rounded=1;html=1;labelBackgroundColor=default;strokeColor=default;fontFamily=Helvetica;fontSize=15;fontColor=default;endArrow=none;endFill=0;" parent="1" source="60" target="2" edge="1">
                    <mxGeometry relative="1" as="geometry"/>
                </mxCell>
                <mxCell id="62" value="" style="edgeStyle=none;shape=connector;rounded=1;html=1;labelBackgroundColor=default;strokeColor=default;fontFamily=Helvetica;fontSize=15;fontColor=default;endArrow=none;endFill=0;" parent="1" source="60" target="25" edge="1">
                    <mxGeometry relative="1" as="geometry"/>
                </mxCell>
                <mxCell id="60" value="HAS" style="rhombus;whiteSpace=wrap;html=1;fontFamily=Helvetica;fontSize=15;fontColor=default;" parent="1" vertex="1">
                    <mxGeometry x="690" y="460" width="110" height="80" as="geometry"/>
                </mxCell>
                <mxCell id="65" style="edgeStyle=none;shape=link;rounded=1;html=1;entryX=0.5;entryY=0;entryDx=0;entryDy=0;labelBackgroundColor=default;strokeColor=default;fontFamily=Helvetica;fontSize=15;fontColor=default;endArrow=none;endFill=0;" parent="1" source="63" target="2" edge="1">
                    <mxGeometry relative="1" as="geometry"/>
                </mxCell>
                <mxCell id="66" value="" style="edgeStyle=none;shape=link;rounded=1;html=1;labelBackgroundColor=default;strokeColor=default;fontFamily=Helvetica;fontSize=15;fontColor=default;endArrow=none;endFill=0;" parent="1" source="63" edge="1">
                    <mxGeometry relative="1" as="geometry">
                        <mxPoint x="551.25" y="210" as="targetPoint"/>
                    </mxGeometry>
                </mxCell>
                <mxCell id="63" value="HAS" style="rhombus;whiteSpace=wrap;html=1;fontFamily=Helvetica;fontSize=15;fontColor=default;double=1;" parent="1" vertex="1">
                    <mxGeometry x="500" y="260" width="110" height="80" as="geometry"/>
                </mxCell>
                <mxCell id="72" style="edgeStyle=none;shape=connector;rounded=1;html=1;entryX=1;entryY=0.25;entryDx=0;entryDy=0;labelBackgroundColor=default;strokeColor=default;fontFamily=Helvetica;fontSize=15;fontColor=default;endArrow=none;endFill=0;" parent="1" source="68" edge="1">
                    <mxGeometry relative="1" as="geometry">
                        <mxPoint x="850" y="250" as="targetPoint"/>
                    </mxGeometry>
                </mxCell>
                <mxCell id="68" value="Last name" style="ellipse;whiteSpace=wrap;html=1;fontSize=15;" parent="1" vertex="1">
                    <mxGeometry x="890" y="180" width="90" height="50" as="geometry"/>
                </mxCell>
                <mxCell id="73" style="edgeStyle=none;shape=connector;rounded=1;html=1;entryX=0.75;entryY=0;entryDx=0;entryDy=0;labelBackgroundColor=default;strokeColor=default;fontFamily=Helvetica;fontSize=15;fontColor=default;endArrow=none;endFill=0;" parent="1" source="69" edge="1">
                    <mxGeometry relative="1" as="geometry">
                        <mxPoint x="830" y="230" as="targetPoint"/>
                    </mxGeometry>
                </mxCell>
                <mxCell id="69" value="First name" style="ellipse;whiteSpace=wrap;html=1;fontSize=15;" parent="1" vertex="1">
                    <mxGeometry x="810" y="140" width="90" height="50" as="geometry"/>
                </mxCell>
                <mxCell id="71" style="edgeStyle=none;shape=connector;rounded=1;html=1;labelBackgroundColor=default;strokeColor=default;fontFamily=Helvetica;fontSize=15;fontColor=default;endArrow=none;endFill=0;entryX=1;entryY=0.5;entryDx=0;entryDy=0;" parent="1" source="70" edge="1">
                    <mxGeometry relative="1" as="geometry">
                        <mxPoint x="850" y="270" as="targetPoint"/>
                    </mxGeometry>
                </mxCell>
                <mxCell id="70" value="&lt;u&gt;Primary Phone number&lt;/u&gt;" style="ellipse;whiteSpace=wrap;html=1;fontSize=15;" parent="1" vertex="1">
                    <mxGeometry x="920" y="240" width="120" height="60" as="geometry"/>
                </mxCell>
                <mxCell id="76" style="edgeStyle=none;shape=connector;rounded=1;html=1;entryX=0;entryY=0.5;entryDx=0;entryDy=0;labelBackgroundColor=default;strokeColor=default;fontFamily=Helvetica;fontSize=15;fontColor=default;endArrow=none;endFill=0;" parent="1" source="75" target="91" edge="1">
                    <mxGeometry relative="1" as="geometry">
                        <mxPoint x="110" y="470" as="targetPoint"/>
                    </mxGeometry>
                </mxCell>
                <mxCell id="75" value="Medical &lt;br style=&quot;font-size: 15px;&quot;&gt;Records" style="ellipse;whiteSpace=wrap;html=1;fontFamily=Helvetica;fontSize=15;fontColor=default;" parent="1" vertex="1">
                    <mxGeometry x="10" y="340" width="100" height="60" as="geometry"/>
                </mxCell>
                <mxCell id="78" style="edgeStyle=none;shape=connector;rounded=1;html=1;labelBackgroundColor=default;strokeColor=default;fontFamily=Helvetica;fontSize=15;fontColor=default;endArrow=none;endFill=0;entryX=0;entryY=0.629;entryDx=0;entryDy=0;entryPerimeter=0;exitX=0.61;exitY=-0.014;exitDx=0;exitDy=0;exitPerimeter=0;" parent="1" source="110" target="91" edge="1">
                    <mxGeometry relative="1" as="geometry">
                        <mxPoint x="110" y="490" as="targetPoint"/>
                        <mxPoint x="85.72478777138303" y="514.2752122286167" as="sourcePoint"/>
                    </mxGeometry>
                </mxCell>
                <mxCell id="80" style="edgeStyle=none;shape=link;rounded=1;html=1;entryX=1;entryY=0.5;entryDx=0;entryDy=0;labelBackgroundColor=default;strokeColor=default;fontFamily=Helvetica;fontSize=15;fontColor=default;endArrow=none;endFill=0;" parent="1" source="79" edge="1">
                    <mxGeometry relative="1" as="geometry">
                        <mxPoint x="230" y="470" as="targetPoint"/>
                    </mxGeometry>
                </mxCell>
                <mxCell id="81" style="edgeStyle=none;shape=connector;rounded=1;html=1;labelBackgroundColor=default;strokeColor=default;fontFamily=Helvetica;fontSize=15;fontColor=default;endArrow=none;endFill=0;" parent="1" source="79" target="2" edge="1">
                    <mxGeometry relative="1" as="geometry"/>
                </mxCell>
                <mxCell id="79" value="HAS" style="rhombus;whiteSpace=wrap;html=1;fontFamily=Helvetica;fontSize=15;fontColor=default;double=1;" parent="1" vertex="1">
                    <mxGeometry x="270" y="430" width="110" height="80" as="geometry"/>
                </mxCell>
                <mxCell id="83" value="Phone number" style="ellipse;shape=doubleEllipse;whiteSpace=wrap;html=1;strokeColor=default;strokeWidth=2;fontFamily=Helvetica;fontSize=15;fontColor=default;" parent="1" vertex="1">
                    <mxGeometry x="445" y="30" width="105" height="60" as="geometry"/>
                </mxCell>
                <mxCell id="87" style="edgeStyle=none;shape=connector;rounded=1;html=1;entryX=0.5;entryY=0;entryDx=0;entryDy=0;labelBackgroundColor=default;strokeColor=default;fontFamily=Helvetica;fontSize=15;fontColor=default;endArrow=none;endFill=0;" parent="1" source="84" target="57" edge="1">
                    <mxGeometry relative="1" as="geometry"/>
                </mxCell>
                <mxCell id="84" value="Street" style="ellipse;whiteSpace=wrap;html=1;strokeColor=default;strokeWidth=2;fontFamily=Helvetica;fontSize=15;fontColor=default;" parent="1" vertex="1">
                    <mxGeometry x="580" y="10" width="90" height="40" as="geometry"/>
                </mxCell>
                <mxCell id="88" style="edgeStyle=none;shape=connector;rounded=1;html=1;entryX=1;entryY=0;entryDx=0;entryDy=0;labelBackgroundColor=default;strokeColor=default;fontFamily=Helvetica;fontSize=15;fontColor=default;endArrow=none;endFill=0;" parent="1" source="85" target="57" edge="1">
                    <mxGeometry relative="1" as="geometry"/>
                </mxCell>
                <mxCell id="85" value="city" style="ellipse;whiteSpace=wrap;html=1;strokeColor=default;strokeWidth=2;fontFamily=Helvetica;fontSize=15;fontColor=default;" parent="1" vertex="1">
                    <mxGeometry x="690" y="40" width="90" height="40" as="geometry"/>
                </mxCell>
                <mxCell id="89" style="edgeStyle=none;shape=connector;rounded=1;html=1;entryX=1.033;entryY=0.66;entryDx=0;entryDy=0;entryPerimeter=0;labelBackgroundColor=default;strokeColor=default;fontFamily=Helvetica;fontSize=15;fontColor=default;endArrow=none;endFill=0;" parent="1" source="86" target="57" edge="1">
                    <mxGeometry relative="1" as="geometry"/>
                </mxCell>
                <mxCell id="86" value="province" style="ellipse;whiteSpace=wrap;html=1;strokeColor=default;strokeWidth=2;fontFamily=Helvetica;fontSize=15;fontColor=default;" parent="1" vertex="1">
                    <mxGeometry x="710" y="90" width="90" height="40" as="geometry"/>
                </mxCell>
                <mxCell id="91" value="Medical&amp;nbsp; conditions" style="shape=ext;double=1;rounded=0;whiteSpace=wrap;html=1;strokeColor=default;strokeWidth=2;fontFamily=Helvetica;fontSize=15;fontColor=default;" parent="1" vertex="1">
                    <mxGeometry x="120" y="435" width="110" height="70" as="geometry"/>
                </mxCell>
                <mxCell id="92" value="Emergency&amp;nbsp;&lt;br&gt;Contact" style="shape=ext;double=1;rounded=0;whiteSpace=wrap;html=1;strokeColor=default;strokeWidth=2;fontFamily=Helvetica;fontSize=15;fontColor=default;" parent="1" vertex="1">
                    <mxGeometry x="740" y="230" width="110" height="70" as="geometry"/>
                </mxCell>
                <mxCell id="95" style="edgeStyle=none;shape=link;rounded=1;html=1;labelBackgroundColor=default;strokeColor=default;fontFamily=Helvetica;fontSize=15;fontColor=default;endArrow=none;endFill=0;" parent="1" source="94" edge="1">
                    <mxGeometry relative="1" as="geometry">
                        <mxPoint x="550" y="460" as="targetPoint"/>
                    </mxGeometry>
                </mxCell>
                <mxCell id="96" style="edgeStyle=none;shape=link;rounded=1;html=1;entryX=0;entryY=0.5;entryDx=0;entryDy=0;labelBackgroundColor=default;strokeColor=default;fontFamily=Helvetica;fontSize=15;fontColor=default;endArrow=none;endFill=0;" parent="1" source="94" target="92" edge="1">
                    <mxGeometry relative="1" as="geometry"/>
                </mxCell>
                <mxCell id="94" value="HAS" style="rhombus;whiteSpace=wrap;html=1;fontFamily=Helvetica;fontSize=15;fontColor=default;double=1;" parent="1" vertex="1">
                    <mxGeometry x="620" y="290" width="110" height="80" as="geometry"/>
                </mxCell>
                <mxCell id="102" style="edgeStyle=none;shape=connector;rounded=1;html=1;entryX=0.011;entryY=0.34;entryDx=0;entryDy=0;entryPerimeter=0;labelBackgroundColor=default;strokeColor=default;fontFamily=Helvetica;fontSize=15;fontColor=default;endArrow=none;endFill=0;" parent="1" source="99" target="11" edge="1">
                    <mxGeometry relative="1" as="geometry"/>
                </mxCell>
                <mxCell id="99" value="Month" style="ellipse;whiteSpace=wrap;html=1;fontSize=15;" parent="1" vertex="1">
                    <mxGeometry x="210" y="580" width="90" height="50" as="geometry"/>
                </mxCell>
                <mxCell id="103" style="edgeStyle=none;shape=connector;rounded=1;html=1;entryX=0.033;entryY=0.8;entryDx=0;entryDy=0;entryPerimeter=0;labelBackgroundColor=default;strokeColor=default;fontFamily=Helvetica;fontSize=15;fontColor=default;endArrow=none;endFill=0;" parent="1" source="100" target="11" edge="1">
                    <mxGeometry relative="1" as="geometry"/>
                </mxCell>
                <mxCell id="100" value="Day" style="ellipse;whiteSpace=wrap;html=1;fontSize=15;" parent="1" vertex="1">
                    <mxGeometry x="200" y="640" width="90" height="50" as="geometry"/>
                </mxCell>
                <mxCell id="104" style="edgeStyle=none;shape=connector;rounded=1;html=1;labelBackgroundColor=default;strokeColor=default;fontFamily=Helvetica;fontSize=15;fontColor=default;endArrow=none;endFill=0;" parent="1" source="101" target="11" edge="1">
                    <mxGeometry relative="1" as="geometry"/>
                </mxCell>
                <mxCell id="101" value="Year" style="ellipse;whiteSpace=wrap;html=1;fontSize=15;" parent="1" vertex="1">
                    <mxGeometry x="250" y="690" width="90" height="50" as="geometry"/>
                </mxCell>
                <mxCell id="135" style="edgeStyle=none;html=1;entryX=1;entryY=1;entryDx=0;entryDy=0;fontSize=15;endArrow=none;endFill=0;" edge="1" parent="1" source="105" target="2">
                    <mxGeometry relative="1" as="geometry"/>
                </mxCell>
                <mxCell id="105" value="Age" style="ellipse;whiteSpace=wrap;html=1;strokeColor=default;strokeWidth=2;fontFamily=Helvetica;fontSize=15;fontColor=default;dashed=1;" parent="1" vertex="1">
                    <mxGeometry x="660" y="560" width="70" height="50" as="geometry"/>
                </mxCell>
                <mxCell id="107" value="Parents/&lt;br&gt;Guardian" style="shape=ext;double=1;rounded=0;whiteSpace=wrap;html=1;strokeColor=default;strokeWidth=2;fontFamily=Helvetica;fontSize=15;fontColor=default;" parent="1" vertex="1">
                    <mxGeometry x="490" y="150" width="120" height="80" as="geometry"/>
                </mxCell>
                <mxCell id="110" value="Treatment&amp;nbsp;&lt;br&gt;Protocols" style="ellipse;shape=doubleEllipse;whiteSpace=wrap;html=1;strokeColor=default;strokeWidth=2;fontFamily=Helvetica;fontSize=15;fontColor=default;" vertex="1" parent="1">
                    <mxGeometry x="20" y="520" width="100" height="60" as="geometry"/>
                </mxCell>
                <mxCell id="113" value="grade" style="ellipse;shape=doubleEllipse;whiteSpace=wrap;html=1;strokeColor=default;strokeWidth=2;fontFamily=Helvetica;fontSize=15;fontColor=default;" vertex="1" parent="1">
                    <mxGeometry x="995" y="595" width="100" height="60" as="geometry"/>
                </mxCell>
                <mxCell id="117" value="&lt;font style=&quot;font-size: 15px;&quot;&gt;N&lt;/font&gt;" style="text;strokeColor=none;align=center;fillColor=none;html=1;verticalAlign=middle;whiteSpace=wrap;rounded=0;" vertex="1" parent="1">
                    <mxGeometry x="550" y="350" width="50" height="20" as="geometry"/>
                </mxCell>
                <mxCell id="120" value="&lt;font style=&quot;font-size: 15px;&quot;&gt;1&lt;/font&gt;" style="text;strokeColor=none;align=center;fillColor=none;html=1;verticalAlign=middle;whiteSpace=wrap;rounded=0;" vertex="1" parent="1">
                    <mxGeometry x="550" y="240" width="50" height="30" as="geometry"/>
                </mxCell>
                <mxCell id="121" value="&lt;font style=&quot;font-size: 15px;&quot;&gt;N&lt;/font&gt;" style="text;strokeColor=none;align=center;fillColor=none;html=1;verticalAlign=middle;whiteSpace=wrap;rounded=0;" vertex="1" parent="1">
                    <mxGeometry x="390" y="450" width="50" height="30" as="geometry"/>
                </mxCell>
                <mxCell id="122" value="&lt;font style=&quot;font-size: 15px;&quot;&gt;M&lt;/font&gt;" style="text;strokeColor=none;align=center;fillColor=none;html=1;verticalAlign=middle;whiteSpace=wrap;rounded=0;" vertex="1" parent="1">
                    <mxGeometry x="230" y="435" width="50" height="40" as="geometry"/>
                </mxCell>
                <mxCell id="123" value="&lt;font style=&quot;font-size: 15px;&quot;&gt;M&lt;/font&gt;" style="text;strokeColor=none;align=center;fillColor=none;html=1;verticalAlign=middle;whiteSpace=wrap;rounded=0;" vertex="1" parent="1">
                    <mxGeometry x="630" y="460" width="50" height="30" as="geometry"/>
                </mxCell>
                <mxCell id="124" value="&lt;font style=&quot;font-size: 15px;&quot;&gt;N&lt;/font&gt;" style="text;strokeColor=none;align=center;fillColor=none;html=1;verticalAlign=middle;whiteSpace=wrap;rounded=0;" vertex="1" parent="1">
                    <mxGeometry x="820" y="470" width="50" height="30" as="geometry"/>
                </mxCell>
                <mxCell id="127" value="&lt;font style=&quot;font-size: 15px;&quot;&gt;1&lt;/font&gt;" style="text;strokeColor=none;align=center;fillColor=none;html=1;verticalAlign=middle;whiteSpace=wrap;rounded=0;" vertex="1" parent="1">
                    <mxGeometry x="680" y="255" width="50" height="30" as="geometry"/>
                </mxCell>
                <mxCell id="128" value="&lt;font style=&quot;font-size: 15px;&quot;&gt;N&lt;/font&gt;" style="text;strokeColor=none;align=center;fillColor=none;html=1;verticalAlign=middle;whiteSpace=wrap;rounded=0;" vertex="1" parent="1">
                    <mxGeometry x="620" y="370" width="50" height="20" as="geometry"/>
                </mxCell>
                <mxCell id="132" value="&lt;span style=&quot;border-bottom: 1px dotted&quot;&gt;First name&lt;/span&gt;" style="ellipse;whiteSpace=wrap;html=1;align=center;fontSize=15;" vertex="1" parent="1">
                    <mxGeometry x="345" y="90" width="100" height="50" as="geometry"/>
                </mxCell>
                <mxCell id="133" value="&lt;span style=&quot;border-bottom: 1px dotted&quot;&gt;Last name&lt;/span&gt;" style="ellipse;whiteSpace=wrap;html=1;align=center;fontSize=15;" vertex="1" parent="1">
                    <mxGeometry x="300" y="150" width="100" height="50" as="geometry"/>
                </mxCell>
                <mxCell id="141" style="edgeStyle=none;html=1;entryX=0.5;entryY=1;entryDx=0;entryDy=0;fontSize=16;endArrow=classic;endFill=1;shape=link;" edge="1" parent="1" source="136" target="2">
                    <mxGeometry relative="1" as="geometry"/>
                </mxCell>
                <mxCell id="136" value="&lt;font style=&quot;font-size: 16px;&quot;&gt;d&lt;/font&gt;" style="ellipse;whiteSpace=wrap;html=1;aspect=fixed;fontSize=15;" vertex="1" parent="1">
                    <mxGeometry x="530" y="580" width="40" height="40" as="geometry"/>
                </mxCell>
            </root>
        </mxGraphModel>
    </diagram>
</mxfile>